<svg xmlns="http://www.w3.org/2000/svg" viewBox="0 0 740 160" width="740" height="160">
  <rect width="740" height="160" fill="#080c08"/>

  <!-- Grid lines background -->
  <g stroke="#090f09" stroke-width="1">
    <line x1="0" y1="0" x2="0" y2="160"/><line x1="32" y1="0" x2="32" y2="160"/>
    <line x1="64" y1="0" x2="64" y2="160"/><line x1="96" y1="0" x2="96" y2="160"/>
    <line x1="128" y1="0" x2="128" y2="160"/><line x1="160" y1="0" x2="160" y2="160"/>
    <line x1="192" y1="0" x2="192" y2="160"/><line x1="224" y1="0" x2="224" y2="160"/>
    <line x1="256" y1="0" x2="256" y2="160"/><line x1="288" y1="0" x2="288" y2="160"/>
    <line x1="320" y1="0" x2="320" y2="160"/><line x1="352" y1="0" x2="352" y2="160"/>
    <line x1="384" y1="0" x2="384" y2="160"/><line x1="416" y1="0" x2="416" y2="160"/>
    <line x1="448" y1="0" x2="448" y2="160"/><line x1="480" y1="0" x2="480" y2="160"/>
    <line x1="512" y1="0" x2="512" y2="160"/><line x1="544" y1="0" x2="544" y2="160"/>
    <line x1="576" y1="0" x2="576" y2="160"/><line x1="608" y1="0" x2="608" y2="160"/>
    <line x1="640" y1="0" x2="640" y2="160"/><line x1="672" y1="0" x2="672" y2="160"/>
    <line x1="704" y1="0" x2="704" y2="160"/><line x1="736" y1="0" x2="736" y2="160"/>
    <line x1="0" y1="16" x2="740" y2="16"/><line x1="0" y1="32" x2="740" y2="32"/>
    <line x1="0" y1="48" x2="740" y2="48"/><line x1="0" y1="64" x2="740" y2="64"/>
    <line x1="0" y1="80" x2="740" y2="80"/><line x1="0" y1="96" x2="740" y2="96"/>
    <line x1="0" y1="112" x2="740" y2="112"/><line x1="0" y1="128" x2="740" y2="128"/>
    <line x1="0" y1="144" x2="740" y2="144"/>
  </g>

  <!-- Corner HUD brackets -->
  <g stroke="#1a7a09" stroke-width="2">
    <!-- Top-left -->
    <line x1="8" y1="8" x2="36" y2="8"/>
    <line x1="8" y1="8" x2="8" y2="36"/>
    <!-- Top-right -->
    <line x1="732" y1="8" x2="704" y2="8"/>
    <line x1="732" y1="8" x2="732" y2="36"/>
    <!-- Bottom-left -->
    <line x1="8" y1="152" x2="36" y2="152"/>
    <line x1="8" y1="152" x2="8" y2="124"/>
    <!-- Bottom-right -->
    <line x1="732" y1="152" x2="704" y2="152"/>
    <line x1="732" y1="152" x2="732" y2="124"/>
  </g>
  <!-- Corner dots -->
  <g fill="#7fff5a">
    <rect x="7" y="7" width="3" height="3"/>
    <rect x="730" y="7" width="3" height="3"/>
    <rect x="7" y="150" width="3" height="3"/>
    <rect x="730" y="150" width="3" height="3"/>
  </g>
  <!-- Top/bottom center lines -->
  <g stroke="#006655" stroke-width="1">
    <line x1="320" y1="8" x2="420" y2="8"/>
    <line x1="320" y1="152" x2="420" y2="152"/>
    <line x1="370" y1="8" x2="370" y2="14"/>
    <line x1="370" y1="152" x2="370" y2="146"/>
  </g>

  <!-- Glow shadow layers for PORKILL text -->
  <text x="372" y="82" text-anchor="middle" font-family="monospace,Courier New" font-size="52" font-weight="bold" fill="#1a7a09" opacity="0.7" dx="-2" dy="-2">PORKILL</text>
  <text x="372" y="82" text-anchor="middle" font-family="monospace,Courier New" font-size="52" font-weight="bold" fill="#1a7a09" opacity="0.7" dx="2" dy="2">PORKILL</text>
  <text x="372" y="82" text-anchor="middle" font-family="monospace,Courier New" font-size="52" font-weight="bold" fill="#1a7a09" opacity="0.7" dx="0" dy="3">PORKILL</text>

  <!-- Main PORKILL text -->
  <text x="370" y="82" text-anchor="middle" font-family="monospace,Courier New" font-size="52" font-weight="bold" fill="#39ff14">PORKILL</text>

  <!-- Subtitle -->
  <text x="370" y="120" text-anchor="middle" font-family="monospace,Courier New" font-size="11" fill="#5a7a5a">[ Process &amp; Port Monitor // Kill with Precision ]</text>

  <!-- Author credit -->
  <text x="370" y="142" text-anchor="middle" font-family="monospace,Courier New" font-size="10" fill="#006655">⌬ by a-issaoui · github.com/a-issaoui</text>
</svg>